# xmcd
#
# Track frame offsets: 
#        182
#        19047
#        36882
#        52367
#        68347
#        84715
#        105857
#        125960
#        141260
#        161560
#
# Disc length: 2381 seconds
#
# Revision: 4
# Processed by: cddbd v1.5.2PL0 Copyright (c) Steve Scherf et al.
# Submitted via: ExactAudioCopy v0.99pb5
#
DISCID=87094b0a
DTITLE=George Thorogood and The Destroyers - Boogie People
DYEAR=1991
DGENRE=Rock
TTITLE0=If You Don't Start Drinkin' (I'm Gonna Leave)
TTITLE1=Long Distance Lover
TTITLE2=Mad Man Blues
TTITLE3=Boogie People
TTITLE4=Can't Be Satisfied
TTITLE5=No Place To Go
TTITLE6=Six Days On The Road
TTITLE7=Born In Chicago
TTITLE8=Oklahoma Sweetheart
TTITLE9=Hello Little Girl
EXTD=
EXTT0=
EXTT1=
EXTT2=
EXTT3=
EXTT4=
EXTT5=
EXTT6=
EXTT7=
EXTT8=
EXTT9=
PLAYORDER=
